<svg xmlns="http://www.w3.org/2000/svg" version="1.1" xmlns:xlink="http://www.w3.org/1999/xlink" xmlns:svgjs="http://svgjs.dev/svgjs" width="45" height="34.48"><svg width="45" xmlns="http://www.w3.org/2000/svg" fill="none" viewBox="63 2 52 34.48">
<g filter="url(#filter0_dddddd_1_389)">
<path d="M97.6628 2.00234C94.6208 1.99805 91.6318 2.79412 88.999 4.3098C91.6347 5.82225 93.8233 7.99876 95.3442 10.6201C96.8652 13.2415 97.6649 16.2152 97.6628 19.2418H80.3352C80.3352 22.6517 81.3519 25.9849 83.2566 28.82C85.1613 31.6552 87.8685 33.8648 91.0359 35.1695C94.2032 36.4741 97.6885 36.8152 101.051 36.1497C104.413 35.4841 107.501 33.8417 109.925 31.4303C112.349 29.0188 113.999 25.9466 114.668 22.6022C115.336 19.2577 114.992 15.7913 113.679 12.6413C112.367 9.49124 110.144 6.79913 107.293 4.9054C104.443 3.01167 101.091 2.0014 97.6628 2.00234V2.00234Z" fill="#515151"></path>
</g>
<path d="M88.9989 4.30984C91.6346 5.82229 93.8232 7.9988 95.3441 10.6202C96.8651 13.2416 97.6648 16.2153 97.6627 19.2418H80.3351C80.3339 22.2676 81.134 25.2404 82.6549 27.8608C84.1758 30.4813 86.3639 32.6571 88.9989 34.1691C86.3641 35.6823 83.3752 36.4789 80.3327 36.4789C77.2902 36.479 74.3013 35.6825 71.6664 34.1694C69.0315 32.6563 66.8434 30.48 65.3221 27.8593C63.8009 25.2385 63 22.2657 63 19.2395C63 16.2133 63.8009 13.2404 65.3221 10.6197C66.8434 7.99891 69.0315 5.82263 71.6664 4.30956C74.3013 2.79649 77.2902 1.99995 80.3327 2C83.3752 2.00005 86.3641 2.79669 88.9989 4.30984V4.30984Z" fill="#559268"></path>
</svg><style>@media (prefers-color-scheme: light) { :root { filter: none; } }
@media (prefers-color-scheme: dark) { :root { filter: none; } }
</style></svg>