<svg width="25" height="12" viewBox="0 0 25 12" fill="none" xmlns="http://www.w3.org/2000/svg">
<path d="M7.92 5.584V7.216H5.216V9.92H3.584V7.216H0.88V5.584H3.584V2.88H5.216V5.584H7.92ZM16.7969 4.416C16.7969 5.26933 16.5729 6.02133 16.1249 6.672L12.5889 12H10.4769L13.0369 8.24H12.8449C11.6822 8.24 10.7275 7.888 9.98088 7.184C9.24488 6.46933 8.87688 5.54667 8.87688 4.416C8.87688 3.28533 9.24488 2.368 9.98088 1.664C10.7275 0.949333 11.6822 0.591999 12.8449 0.591999C14.0075 0.591999 14.9569 0.949333 15.6929 1.664C16.4289 2.368 16.7969 3.28533 16.7969 4.416ZM10.7169 4.416C10.7169 5.03467 10.9142 5.536 11.3089 5.92C11.7142 6.304 12.2262 6.496 12.8449 6.496C13.4635 6.496 13.9702 6.30933 14.3649 5.936C14.7595 5.552 14.9569 5.04533 14.9569 4.416C14.9569 3.78667 14.7595 3.28533 14.3649 2.912C13.9702 2.528 13.4635 2.336 12.8449 2.336C12.2262 2.336 11.7142 2.528 11.3089 2.912C10.9142 3.28533 10.7169 3.78667 10.7169 4.416ZM24.9556 12H22.8916L19.6116 8.304V12H17.8836V0.799999H19.6116V7.536L22.7156 4H24.8276L21.3076 7.92L24.9556 12Z" fill="white"/>
</svg>
