<svg xmlns="http://www.w3.org/2000/svg" width="117" height="120" fill="none">
  <path fill="#5FAA8D" d="m69.11 12.86.09 1.43-.34.38c0 .85.06 1.74.01 2.55.05.71-.1 1.44-.05 2.15.05.8 0 1.61.1 2.37.04.71.35 1.5.17 2.18-.22.82.22 1.55.18 2.36-.1.77 0 1.53 0 2.29l.27-.02c.3 2.22.62 4.53 1.64 6.7-.04.05-.07.27-.2.5.18 0 .32.03.5.02.43 1.22 1.04 2.44 1.42 3.71.5 1.54 1.38 2.91 1.65 4.5.14.8.59 1.62 1.08 2.3.3.44-.01.6-.04.9.23.04.36.07.64.15.37 1 .7 1.97 1.11 3.01-.27.02-.44.03-.66.09-.06.54-.53.97.15 1.83-.5-.2-.83-.3-1.24-.5.08.66.1.93.12 1.28l.68.1c.1.26.21.6.32.96-.08.1-.21.24-.26.2-.45-.16-.9-.3-1.4-.4-.65.53-.04.98.03 1.47l-.35.02c-.03.23-.16.46-.19.68-.54-.05-.99-.11-1.66-.2-1.17-.87-2.4-1.95-3.75-2.8-.74-.4-1.27-1.13-2.04-1.3-.92-.3-1.28-1.13-2.05-1.4-.83-.3-1.36-1.03-2.1-1.34-.78-.35-1.31-1.08-2.05-1.4-1.7-.73-3.12-2.07-4.98-2.63-.44-.64-1.43-.67-1.7-1.5-.95-.16-1.7-.65-2.48-1.1-1.11-.64-2.43-.87-3.42-1.74-.28-.25-.77-.27-1.41-.5.93 1.42 1.68 2.67 2.57 4.14 0 .18 0 .67-.07 1.21.46.24.83.4 1.2.55.8 1.47 2.13 2.73 2.28 4.64.8-.14 1.03.74 1.58.98.74 1.92 2.16 3.26 3.34 5.07 0 0-.03.31-.01.58.4.69 1.22.9 1.45 1.79.17.66.74 1.25 1.3 1.66.66.5 1.15 1.18 1.36 1.8.31.78 1 1.05 1.44 1.69v.85c1.4.98 2.43 2.4 3.71 3.7.02.27-.05.54-.03.9l1.32 1.17c-.31.06-.5.07-.8.14.7.53.79 1.2.65 2.02-.17.1-.35.1-.57.17.08 1.25.1 2.54.17 3.7-.38.25-.73.45-1.12.7-.13-.04-.4-.1-.63-.14l-.25.29c.1.17.2.34.35.65-.63.8-1.51.94-2.45.96-.7-.45-.7-.45-1.75-.02.4.1.59.1.82.21-.04.14-.16.28-.29.51l-.92-.56c-.04.22-.02.4-.02.49-1.06.25-2.12.5-3.27.75l-.56-.5c.01.26-.02.4-.06.63l-.6-.28c-.16.2-.33.38-.5.57l-.8.05c-.07-.49-.5-.95-.13-1.47-.93.2-.62.9-.62 1.65-.24-.2-.51-.37-.7-.53-.8.23-1.64.33-2.27 1.04-.55.62-1.41.36-2.23.05-.04.23-.07.36-.06.63l-.83-.48c-.04.05-.13.14-.33.47-.53.12-1.33.17-2.03.49-.96.5-1.97.03-2.92.54-.83.46-1.84.66-2.87.77-1.38.13-2.74.62-4.15.98l.71.63c.17-.1.4-.16.7-.32.06.31.17.57.27.84.5.1 1.05.24 1.54.26.45.06.92.38 1.34-.09.34.56.96.43 1.5.4l.02.35c1.96-.12 3.82.34 5.65.94.62-.04 1.24-.08 1.91-.17.19.17.38.33.42.38.95.07 1.76.2 2.66.23-.11.4-.14.63-.25 1.04.54.15 1.08.2 1.58.3.2-.41.4-.74.56-1.1 1.22.14 2.35.3 3.75.52-.56.43-.93.28-1.33.35.23.8.83.3 1.24.41.05.22.06.4.18.84.26-.2.56-.35.82-.54l.02.35c.03-.22.1-.5.18-.77.5.1.9.21 1.27.37.06.22.07.4.08.57.18 0 .32.03.54-.03.24-.37.48-.84.77-1.26 1.59.3 3.08.6 4.58.92v.17c-.17.02-.3.07-.7.14.78.44 1.39.8 2.09 1.25l-.96 2.03.14.8c-2.03-.27-4-.15-5.92-.16-2.64.04-5.26-.42-7.91-.56-2.74-.14-5.45-.68-8.2-1-1.58-.21-3.16-.33-4.7-.6-2.16-.3-4.37-.56-6.5-1.1-.9-.2-1.88-.05-2.89-.44-.78-.35-1.8-.24-2.7-.36-2.35-.2-4.7-.6-7.07-.58-1.52.01-3.1-.2-4.85-.31l-1.55-1.38c.33-.38.53-.88 1.28-.98-.29-.34-.58-.68-.86-.93.31-1.58 1.22-2.8 2.54-4.01.23.03.63.05 1.3.14.1 0 .51.2 1.1.38.24-.56.4-.92.5-1.33.76-.19 1.5-.37 2.26-.46.67-.09 1.2-.8 1.93 0l-.04-.7c.82.3 1.47-.82 2.32-.06.26-.2.42-.39.68-.59.14.04.28.17.42.2 1.9-1.02 4.13-1.25 6.25-1.65.09-.1.17-.28.3-.34.57-.17 1.26-.57 1.72-.42.77.26 1.44-.58 2.15.13.3-.33.6-.57.85-.86.18.08.37.16.64.23.12-.14.3-.33.55-.53.53-.03 1.2-.03 2-.08-.1.4-.18.68-.3 1 .54-.12.98-.24 1.42-.36.03-.23.07-.36.14-.72.31.02.59.18.9.12.27-.02.43-.21.7-.32-.01-.18.02-.4.09-.76l1.08.2c.1.08.25.38.5.77l.46-.52c.63.14 1.09.29 1.69-.2 1.02-.78 2.4-1.1 3.66-1.58.18-.1.5.1.68.18 0-.18.03-.31.03-.31.76-.1 1.42-.27 2.09-.27.67 0 1.36.27 2.17.48.35-.2.2-.5-.63-.98.8.03 1.03.06 1.34.09.06.22.2.43.37.91.2-.5.31-.82.43-1.14.13-.05.3-.07.53-.13-.06-.22.05-.63-.09-.66-.65-.4-.87-1.1-1.08-1.72-1.16-.6-1.5-1.83-2.31-2.72-.86-.93-1.68-2-2.37-3.11-.65-1.08-1.3-2.16-2.1-3.05-.87-.93-1.47-2.05-2.24-2.99-.82-.98-1.51-2.1-2.11-3.22-.56-1.08-1.46-1.97-2.02-3.05a19 19 0 0 0-2.1-3.22c-.78-1.03-1.2-2.16-1.94-3.15-.68-1.03-1.37-2.06-1.97-3.1-.64-1.07-1.2-2.24-1.8-3.37-.6-1.03-1.2-2.16-1.9-3.28l-.09-1.52c.18 0 .31-.06.5-.07.54-.53.07-.95-.09-1.34l1.19-1.91c.09 0 .27-.02.4-.07-.03-1.2.95-1.36 1.79-1.55.84-.19 1.73-.16 2.63-.21 1.39.9 3.36.86 4.44 2.49.21-.15.34-.3.55-.44.88.52 1.77 1.14 2.83 1.74.05-.05.22-.15.35-.2.88.44 1.8.83 2.63 1.3.32.21.79.45.85.76.22.8.7 1.2 1.5 1.34.37.06.7.44 1.16.5l-1-.87c.23-.06.35-.2.4-.16.62.63 1.44.94 2.22 1.29.69.27 1.34.67 1.5 1.24.23.7.86.84 1.27 1.62.06-.45.05-.54.09-.67 1.17.19 1.63.34 2 1.17.25.65.85.84 1.36 1.12-.3-.34-.58-.68-1.15-1.27 1.01.56 1.67.97 2.68 1.53-1.23-2.7-1.56-5.36-2.25-7.92-.7-2.64-.82-4.02-.68-6.26.02-.4-.18-.84-.25-1.24-.04-.72.1-1.44.05-2.15-.03-.63-.3-1.28-.29-1.95 0-1.7.29-3.47.2-5.17-.02-.17.24-.37.4-.56-.1-.26-.25-.56-.22-.88.14-1.4.28-2.8.65-4.16.3-1.1.4-2.18.8-3.27.33-1.06 1-1.9 1.43-2.87.48-1.02 1.47-1.66 2.57-2.14.18 1.6 1.9 1.36 2.81 2.24-.38-.42-.8-.8-1.19-1.22l.17-.2.85.76.75.67c.29.25.53.63 1.02.47-.2.5.5.37.52.64.04.53.72.04.8.53.06.3.25.56.45.82.24.3.56.5.85.75-.12.32-.2.5-.36.78.3-.15.48-.25.7-.4.13.13.32.2.6.46l.09 1.51c.23.21.38.34.6.46.22-.15.44-.21.66-.36-.12.32-.15.55-.22.82l.28.25c.26-.1.44-.2.7-.31.54.9.91 1.82 1.71 2.53.38.33.55.9.76 1.43 0 0 .09 0 .22.03.5.77 1.03 1.5 1.62 2.45-.5-.02-.8-.04-1.12-.07.38.43.62.63 1.21.82l.01.18.02.36c.1-.01.22-.06.36-.03h.18c.24.38.45.81.8 1.37l-1.01 1.14c0 .1.05.13.1.26.22-.06.48-.16.88-.23.04-.14.07-.36.18-.86.48.68.83 1.24 1.22 1.75-.08.19-.2.33-.24.47 1.03.15 1.21.9 1.35 1.7.01.27.16.48.27.74.3.52.63 1 1.03 1.6 0 0-.08.18-.24.46.23.2.56.4 1.03.83-.05-.13-.04.04.01.18.55.99 1.18 1.89 1.65 2.89.05.13.18.17.19.25.4.6.04 1.48.7 1.97.56.42.56 1.18.86 1.7.34.56.6 1.21.95 1.86.1.17.12.44.26.56.1.18.33.3.61.55.02.26-.05.63-.08.85l.9.8c.05.98.07 2 .96 2.7.1.1.19.18.2.27 0 1.52 1.13 2.52 1.52 3.88.35 1.32 1.13 2.53 1.57 3.84.59 1.7 1.05 3.47 1.6 5.23.05.13.06.3.03.53-.31 1.5-.72 3-1.09 4.37-.68.49-1.24.93-1.96 1.56-.32-.03-.86-.17-1.36-.27-.46-.91-.95-1.69-1.32-2.6-.4-.87-.73-1.75-.96-2.72-.57-2.02-1.53-3.89-2.18-5.81-.38-1.19-1.15-2.21-1.19-3.5-1.17-1.72-1.78-3.7-2.6-5.62-.37-.82-.6-1.7-1.13-2.43-.49-.69-.8-1.47-1.25-2.2l-3.85-6.96c-.7-1.21-1.4-2.42-2.13-3.58-.74-1.16-1.61-2.27-2.27-3.53-1.2-2.07-2.81-3.76-4.1-5.73-.64-1.08-1.67-1.91-2.57-2.8-.33-.96-1.27-1.8-2.5-2.88Z"/>
</svg>
