<svg width="510" height="172" viewBox="0 0 510 172" fill="none" xmlns="http://www.w3.org/2000/svg">
<path d="M8.0059 83.7844C8.0059 83.7844 54.6722 35.7009 95.0592 25.9037C148.715 12.8877 187.263 88.0896 183.8 125.316C180.337 162.542 143.976 166.005 120.602 162.542C97.2271 159.079 79.4796 130.382 87.7041 98.0454C95.9285 65.7093 150.976 4.92752 227.742 11.0847C304.508 17.2419 341.567 59.0849 311.641 102.078C300.681 117.823 286.407 125.819 271.498 130.382C256.589 134.945 225.739 126.711 228.251 95.3896C230.764 64.0679 295.026 11.582 349.966 20.888C399.171 29.2227 445.364 66.727 442.272 105.279C439.18 143.831 402.753 140.909 394.926 140.281C387.099 139.654 365.966 134.926 364.022 106.279C362.078 77.6334 384.125 -12.1401 501.854 12.1561" stroke="#5A956C" stroke-width="15" stroke-linecap="round"/>
</svg>
