<svg xmlns="http://www.w3.org/2000/svg" width="800" height="600" viewBox="0 0 800 600" fill="none"><path d="M370.026 32.0762C368.684 35.8272 368.201 40.2672 365.845 43.2072C356.945 54.3212 350.862 67.0072 343.945 79.2852C339.477 87.2142 336.598 95.7382 332.858 103.916C329.13 112.068 326.77 120.849 323.842 129.365C320.199 139.965 317.007 150.746 313.88 161.457C311.432 169.841 307.395 178.166 307.908 187.34C303.541 197.827 303.748 209.522 299.239 220.019C298.305 222.195 299.104 225.119 300.239 227.837C302.206 220.331 304.172 212.825 306.139 205.318C307.733 199.195 309.803 193.144 310.778 186.918C312.454 176.226 316.673 166.253 318.778 155.651C320.678 146.077 324.309 136.773 327.907 127.638C329.996 122.338 332.334 116.92 334.007 111.638C335.672 106.384 340.219 102.213 339.769 96.2882C346.027 89.7002 345.795 79.6462 352.148 73.1092C353.284 65.3022 359.458 60.1492 362.49 53.4972C365.69 46.4792 371.127 41.2572 374.69 34.6822C374.949 34.1354 375.393 33.6983 375.944 33.4487C376.496 33.1991 377.117 33.1532 377.699 33.3192C381.599 35.4692 374.047 38.1532 378.085 40.3802C381.726 40.8322 379.993 35.2622 384.019 35.3372C384.019 39.6462 383.729 44.0222 384.134 48.3372C384.357 50.7222 381.323 51.4512 382.126 53.7562C378.202 57.1942 376.845 62.1292 374.54 66.5272C374.006 67.5462 373.673 69.2612 373.3 69.4532C367.533 72.4182 366.253 78.0642 364.555 83.4772C364 85.2462 361.818 84.0312 361.076 85.4432C363.715 87.3362 363.721 91.1552 362.55 92.4312C357.15 98.3142 357.033 106.171 354.109 112.92C350.209 121.927 346.692 131.193 345.028 141.013C344.272 144.767 343.016 148.403 341.292 151.822C337.422 160.005 337.428 169.052 334.378 177.283C331.395 185.33 331.439 194.044 328.016 202.07C326.493 205.64 325.991 210.186 325.707 214.345C325.465 217.9 324.83 221.045 322.107 223.496L324.1 225.689C323.127 228.089 321.538 230.531 322.049 233.525C322.738 237.571 320.624 241.257 320.009 245.125C318.728 253.185 317.36 261.182 316.462 269.325C315.938 274.08 316.395 279.433 314.633 283.508C312.455 288.545 314.727 293.463 313.072 297.908C310.965 303.57 312.662 309.488 311.237 314.865C308.945 323.509 310.982 332.265 309.515 340.698C306.327 359.024 308.793 377.398 307.933 395.724C307.795 398.666 307.155 401.912 308.142 404.482C309.013 406.75 308.059 409.06 309.455 411.355C310.04 412.381 310.255 413.578 310.062 414.743C309.869 415.909 309.28 416.973 308.395 417.755C310.711 419.927 305.786 423.162 309.474 425.239C309.739 425.389 309.449 426.798 309.174 427.533C308.988 428.033 308.384 428.383 307.863 428.905L311.451 432.124C311.451 436.275 311.338 440.643 311.498 445.001C311.58 447.201 310.592 449.556 312.748 451.608C313.524 452.346 313.392 454.396 313.157 455.758C312.727 458.258 310.792 460.282 313.027 463.293C314.493 465.269 312.102 468.952 314.855 471.378C315.446 471.899 314.855 473.644 315.014 474.796C315.485 478.163 313.882 481.703 316.15 484.945C318.139 487.788 315.018 492.008 318.513 494.588C318.654 494.688 318.574 495.161 318.524 495.447C317.209 503.022 321.015 510.17 320.38 517.721C320.221 519.608 319.615 521.645 321.133 523.578C324.971 528.462 324.052 534.73 325.467 540.32C326.513 544.454 326.607 548.45 331.609 550.23C334.131 551.13 335.809 553.949 333.986 556.584C332.135 559.263 332.227 561.084 334.323 563.406C334.907 564.052 334.412 565.671 334.412 566.962C332.799 568.715 330.604 567.362 328.381 567.919L323.322 561.869C319.66 568 316.782 568.508 311.958 565.793C304.24 561.451 301.803 553.861 299.132 546.424C297.281 541.273 296.252 535.832 294.563 530.616C292.956 525.655 292.684 520.409 290.456 515.506C289.169 512.674 289.135 508.913 288.746 505.697C287.729 497.297 284.652 489.204 284.958 480.665C285.058 477.985 282.486 476.35 282.974 473.408C283.361 471.077 284.231 468.108 281.524 466.108C281.224 465.885 281.3 464.996 281.377 464.441C282.477 456.59 278.561 449.147 279.554 441.284C280.054 437.293 277.011 433.884 277.685 429.616C278.45 425.541 278.45 421.359 277.685 417.284C274.402 402.831 276.619 388.255 276.129 373.754C275.741 362.268 275.999 350.754 276.068 339.254C276.119 330.621 279.014 322.173 277.821 313.449C280.438 308.932 278.474 303.668 279.856 299.227C281.28 294.65 280.266 289.953 281.612 285.806C283.054 281.363 281.701 276.378 283.912 272.668C286.299 268.668 282.533 263.735 286.671 260.502C286.226 256.177 287.797 252.087 288.151 247.941C288.426 244.719 289.509 241.904 290.321 239C291.787 233.752 291.456 228.314 292.561 223.11C293.597 218.229 294.661 213.331 295.774 208.497C298.001 198.839 300.627 189.269 302.829 179.578C304.103 173.411 305.908 167.366 308.223 161.51C310.606 155.839 310.504 149.583 313.23 144.116C316.423 137.716 317.106 130.474 320.222 124.006C323.292 117.633 325.322 110.791 327.882 104.19C333.322 90.1452 340.126 76.7982 346.872 63.4012C350.872 55.4602 356.562 48.5622 361.104 40.9682C363.304 37.3177 366.368 34.2641 370.026 32.0762Z" fill="black"/><path d="M491.915 475.773H487.572C486.48 476.489 487.187 476.973 487.652 477.679C489.01 479.744 488.009 483.279 491.938 483.827C493.151 483.997 493.853 485.652 493.824 487.382C493.773 490.497 495.99 491.731 498.898 491.9V503.382C497.509 504.609 496.669 506.247 494.431 505.932C493.119 505.748 491.336 505.132 490.365 506.64C489.422 508.157 487.935 509.254 486.207 509.706C484.48 510.158 482.646 509.931 481.081 509.071C477.894 506.94 474.036 505.539 471.807 501.162C468.192 493.776 465.492 485.976 463.768 477.935C462.053 470.58 461.068 463.035 459.82 455.583C459.02 450.769 459.359 445.801 458.109 441.29C456.765 436.445 457.521 431.537 456.398 426.956C454.523 419.305 453.817 411.972 456.107 404.308C456.472 403.088 455.113 400.893 454.687 399.052C453.036 391.902 452.202 377.358 453.908 369.704C454.418 367.416 451.856 365.752 453.108 363.789C454.402 361.755 456.136 360.023 453.102 358.116C456.562 352.345 450.19 345.894 454.602 339.826C456.123 337.733 454.502 333.889 456.376 330.851C457.238 329.451 453.719 327.223 454.953 324.394L458.337 320.815C457.693 320.458 457.178 319.907 456.864 319.241C456.551 318.574 456.455 317.826 456.59 317.102C457.536 312.409 457.78 307.502 458.9 302.972C460.48 296.577 461.86 290.095 463.484 283.705C467.071 269.588 470.437 255.476 475.375 241.705C479.089 231.15 483.403 220.816 488.297 210.754C492.91 201.405 498.097 192.927 507.273 187.532C508.273 188.198 507.824 189.157 507.915 189.985C508.006 190.813 507.621 191.785 509.085 192.636C510.557 190.736 512.127 188.708 514.072 186.196C516.948 189.239 520.072 189.231 523.047 188.982C526.153 194.982 522.039 198.977 519.381 203.021C517.492 205.738 515.974 208.694 514.866 211.811C510.866 223.698 506.333 235.403 502 247.176C499.775 247.089 501.813 244.446 499.923 244.176C499.738 244.371 499.199 244.676 499.101 245.086C498.327 248.329 501.753 250.71 500.879 254.086C499.772 258.373 498.915 262.727 498.029 267.069C495.974 277.141 491.893 286.746 491.811 297.31C491.781 301.078 490.332 304.932 489.717 308.803C489.317 311.349 491.079 314.348 488.449 316.503C489.725 324.655 485.338 332.448 486.78 340.53C487.448 344.276 484.419 347.83 486.68 351.471C484.28 354.764 484.955 358.571 484.919 362.242C484.879 366.371 484.91 370.501 484.91 374.631C484.91 378.465 484.744 382.31 484.965 386.131C485.127 388.937 484.365 391.695 485.787 394.631C486.714 396.548 482.98 399.488 486.205 401.831C482.331 407.874 487.815 413.531 486.839 419.664C485 431.227 489.378 442.671 488.45 454.303C490.983 457.032 486.999 460.348 488.67 462.417C491.122 465.452 489.998 468.536 490.115 471.576C490.171 473.183 491.467 473.856 491.915 475.773ZM461.965 383.073C461.865 380.788 461.837 379.273 463.29 377.744C465.218 375.713 461.247 374.652 461.843 372.474C462.143 371.374 461.434 369.419 461.972 369.074C465.059 367.074 461.928 364.359 462.747 362.844C464.169 360.214 463.313 357.744 463.647 355.237C464.084 351.913 462.896 348.512 465.327 345.279C467.305 342.648 463.156 339.534 465.256 336.107C466.307 334.394 465.841 331.414 465.339 329.169C464.69 326.264 467.839 324.748 467.297 321.905C466.865 319.63 467.528 317.15 467.128 314.863C466.635 312.046 469.818 310.382 468.979 307.624C468.14 304.866 471.202 303.203 470.858 300.386C470.524 297.652 469.958 294.564 472.519 292.286C472.197 286.552 472.204 280.914 476.001 276.024C476.43 275.472 476.184 274.279 476.037 273.424C475.778 271.747 475.86 270.035 476.279 268.391C476.698 266.746 477.444 265.203 478.474 263.854C479.716 262.135 479.387 260.622 479.601 258.972C479.752 257.314 480.097 255.68 480.63 254.103C483.166 247.196 485.811 240.303 488.187 233.37C491.476 223.834 495.303 214.492 499.651 205.39C500.276 204.074 501.543 203.202 499.951 201.319C498.3 203.558 495.951 204.829 495.095 207.874C494.295 210.698 491.214 213.162 491.147 215.835C491.067 219.026 486.347 219.216 487.793 223.335C488.48 225.299 485.593 228.473 484.414 231.135C482.765 234.871 480.272 238.535 479.825 242.429C479.209 247.796 476.961 252.558 475.417 257.494C473.856 262.484 473.017 267.635 471.524 272.629C470.041 277.603 467.678 282.598 467.457 287.68C467.22 293.147 465.505 298.296 465.025 303.698C464.689 307.482 464.79 311.853 463.359 315.249C462.198 317.826 461.736 320.664 462.019 323.476C462.355 326.55 459.44 328.376 459.973 331.623C460.632 335.641 460.302 339.859 460.08 343.973C459.88 347.712 461.726 352.165 459.273 355.034C456.067 358.785 462.961 362.607 458.361 365.649C460.547 368.697 460.87 371.727 458.408 374.831C458.233 375.052 458.59 375.994 458.953 376.297C461.226 378.197 460.188 380.772 460.038 382.897C458.987 397.758 462.014 412.416 462.05 427.212C462.05 427.421 462.441 427.629 463.05 428.237C465.05 421.787 461.75 414.987 464.956 409.352C463.767 406.994 462.663 404.802 461.732 402.952C462.496 400.725 464.751 402.077 465.422 400.536C464.772 399.636 462.969 398.82 463.757 397.779C466.364 394.333 462.74 392.234 462.311 389.428L465.822 386.044L461.965 383.073Z" fill="black"/><path d="M376.937 300.54C376.937 312.63 377.086 324.723 376.846 336.809C376.775 340.398 378.56 344.409 375.228 347.64C374.828 348.031 375.09 349.224 375.862 349.961C377.595 351.614 377.462 353.455 376.134 355.361C375.677 356.016 375.012 357.067 375.241 357.575C377.179 361.863 377.832 366.067 375.168 370.297C378.901 374.677 376.762 379.874 376.778 384.603C376.809 394.156 380.037 403.457 378.707 413.064C382.641 418.917 378.231 426.183 381.927 432.077C378.206 436.188 381.452 440.4 383.076 443.363C385.305 447.431 382.176 451.84 385.521 455.778C387.079 457.615 385.787 461.869 386.321 465.13C387.281 462.518 389.114 460.856 390.899 459.163C389.175 456.04 387.063 453.125 387.499 449.197C387.742 447.01 388.166 444.554 385.899 442.906C389.077 440.806 385.758 438.801 385.184 437.506C384.431 435.806 384.648 435.344 385.629 434.194C385.849 433.813 385.973 433.384 385.991 432.945C386.008 432.505 385.918 432.068 385.729 431.671C381.501 424.953 386.56 416.764 382.244 410.102C383.366 406.697 383.67 403.43 380.66 400.723C384.49 398.208 379.087 394.731 380.66 393.667C384.046 391.379 377.526 388.061 381.965 386.657C382.058 383.747 383.058 380.481 382.082 377.99C378.504 368.855 381.39 359.524 380.563 350.342C380.374 348.242 384.31 346.047 380.505 343.867C384.383 341.679 380.56 339.531 380.499 337.358C380.335 331.564 381.699 325.937 382.993 320.372C383.438 319.078 383.786 317.753 384.036 316.408C384.256 313.94 382.236 311.824 383.8 308.908C384.907 306.849 384.263 303.687 383.969 301.066C382.957 292.042 387.069 283.389 385.777 274.371C385.577 272.965 386.671 272.365 387.36 271.471C387.703 271.028 387.653 262.728 387.572 261.525C387.492 260.351 387.079 258.838 387.631 258.041C391.475 252.492 389.907 245.551 392.531 239.7C392.948 238.313 393.053 236.85 392.838 235.418C392.652 231.569 393.349 228.075 396.359 225.366L394.933 223.792C395.681 215.479 399.683 208.168 399.954 200.006C400 198.615 399.587 197.187 400.881 195.937C401.6 195.243 401.769 193.98 402.207 192.922C403.73 193.063 404.264 194.482 405.253 195.301C406.018 197.563 401.539 199.136 404.783 202.074C407.15 204.217 402.1 205.968 403.293 209.099C404.144 211.329 404.168 214.911 402.888 216.674C400.938 219.36 402.535 221.627 402.117 224.152C404.007 221.2 403.626 216.971 408.344 214.814C408.437 217.776 405.712 219.8 407.808 222.498C408.771 223.227 408.77 220.868 409.857 221.071C411.992 223.683 409.473 225.65 408.835 227.936C408.219 230.136 409.722 232.683 408.16 234.727C406.277 237.193 410.648 239.063 408.268 241.703L405.322 242.766L407.1 245.027L403 247.87C405.213 249.801 406.231 251.184 404.069 253.352C403.695 253.727 404.705 256.12 403.9 257.577C407.787 259.548 400.271 260.559 403.487 262.477L406.01 264.999C408.367 263.919 405.804 261.046 407.91 259.856C409.71 261.523 408.943 263.782 408.61 265.546C408.41 266.613 407.885 269.437 404.561 267.551C402.932 266.626 401.177 270.002 401.812 272.351C402.271 274.051 403.281 275.314 401.801 277.168C400.564 278.718 399.833 280.714 401.678 282.751C403.405 284.659 399.171 286.08 400.978 288.702C401.527 289.502 400.509 292.881 399.731 294.566C398.676 296.852 400.271 299.489 398.253 301.344C401.153 302.565 398.053 305.168 399.73 307.258C401.343 309.269 397.693 308.933 396.43 310.247C400.967 312.579 395.788 314.814 396.417 317.264C397.779 319.04 399.517 318.111 401.333 317.899C402.655 311.079 400.057 303.81 402.558 297.265C405.029 290.797 400.715 283.287 406.326 277.65C407.8 278.922 407.51 281.226 406.901 282.381C404.289 287.34 406.274 292.702 405.139 297.614C402.477 309.131 403.754 320.737 403.639 332.298C403.609 335.198 400.568 336.473 401.148 339.376C400.004 335.295 398.705 331.326 401.88 327.368L399.116 321.835C396.328 323.064 396.767 326.409 394.861 327.893C397.488 332.047 399.75 336.187 397.299 341.24C396.345 343.206 400.35 345.832 396.465 347.39C400.165 354.259 397.602 361.64 398.087 368.763C398.566 375.8 398.192 382.895 398.192 389.895C399.482 391.764 401.646 390.005 403.523 391.625C402.58 404.087 407.274 416.777 403.765 429.786V417.813C401.513 417.694 401.065 419.284 400.012 419.961L401.512 421.651C398.694 425.925 403.427 429.372 401.333 434.41C403.672 432.358 404.412 430.758 406.951 432.144C406.29 433.658 404.534 434.59 403.569 436.009C406.593 437.576 409.233 439.679 408.744 443.409C407.744 451.009 410.268 458.248 410.917 465.656C411.304 470.075 411.852 474.628 412.501 479.085C413.11 483.264 414.582 487.316 414.121 491.644C418.027 495.457 413.658 501.428 417.661 505.217C416.356 510.217 420.218 514.54 419.507 519.534C419.197 521.708 422.498 523.372 421.145 525.834C420.031 527.864 424.745 529.594 421.23 531.487C422.284 533.361 425.408 533.987 424.617 536.935C423.56 538.322 423.286 536.77 422.117 536.375C418.934 539.227 414.323 540.741 411.674 544.77C410.211 544.152 410.846 542.732 410.28 541.827C409.036 540.648 407.475 541.59 405.889 541.141L404.855 538.166C403.717 537.442 403.655 538.889 402.702 539.159C401.058 538.373 399.694 537.172 399.978 534.912C400.361 531.873 398.931 529.284 397.26 527.221C394.305 523.802 392.798 519.366 393.06 514.854C393.219 512.609 389.725 510.597 392.929 508.274L389.266 506.974C390.043 502.259 387.799 497.952 386.744 493.374C385.318 487.185 384.583 480.886 382.469 474.789C381.608 472.307 381.584 469.411 380.643 466.695C379.759 464.147 380.529 461.328 378.958 458.502C377.702 456.241 379.487 452.311 378.258 450.002C376.784 447.235 376.146 445.472 378.431 443.116C378.631 442.91 376.897 441.281 377.046 440.501C377.737 436.895 374.764 434.132 375.117 430.593C375.454 427.211 375.381 423.83 373.455 420.687C371.855 418.075 376.298 415.207 373.408 412.452C372.53 404.46 371.019 396.535 371.553 388.409C371.713 385.983 372.653 383.201 370.024 381.06C369.209 380.395 370.564 379.099 370.924 378.092C372.107 374.826 372.404 371.179 370.824 368.116C369.924 366.363 369.461 364.652 370.137 363.316C370.804 362 371.555 361.56 370.27 360.016C369.308 358.856 369.523 356.909 370.77 355.284C372.262 353.345 372.501 350.304 371.037 348.924C368.598 346.624 373.437 345.196 371.021 343.186C368.657 341.22 369.603 338.086 370.087 335.791C370.457 334.037 370.166 332.122 370.9 330.566C372.507 327.166 371.468 323.671 371.548 320.247C371.629 316.804 374.4 314.054 373.529 310.337C373.3 308.96 372.64 307.692 371.645 306.714C373.87 305.023 373.345 301.018 376.937 300.54Z" fill="black"/><path d="M376.924 300.548C377.956 297.176 374.502 296.248 373.515 294.278C372.853 292.269 375.071 291.719 375.126 290.351C375.326 285.525 376.079 280.763 376.606 276.01C377.349 268.169 378.537 260.376 380.166 252.67C381.329 247.546 381.195 242.133 384.017 237.398C381.563 233.758 383.9 229.956 384.333 226.518C384.92 221.848 384.608 216.274 389.225 212.818C387.216 211.013 386.687 209.129 388.383 206.738C390.56 203.744 391.541 200.045 391.133 196.366C390.98 195.664 390.988 194.937 391.155 194.239C391.323 193.541 391.647 192.89 392.102 192.335C394.902 189.104 394.875 185.051 394.567 180.862L397.684 179.787C400.068 177.304 394.494 175.68 396.747 173.872C398.947 172.11 397.153 169.337 399.115 167.841L401.672 170.398C399.072 172.268 399.64 174.123 401.727 175.941C401.674 176.529 401.849 177.353 401.538 177.629C397.638 181.095 397.838 186.359 396.759 190.657C395.422 195.978 394.746 201.607 393.427 207.031C392.195 212.102 390.298 217.27 389.766 222.187C389.156 227.831 387.746 233.387 387.266 239.075C386.81 244.466 386.312 250.059 384.296 255.434C382.876 259.22 383.096 263.783 382.637 267.909C382.01 273.548 379.087 278.989 380.508 284.819C381.192 287.619 377.935 289.119 378.581 292.084C379.121 294.565 378.581 297.295 378.381 299.905C378.365 300.154 377.442 300.333 376.924 300.548Z" fill="black"/></svg>